<svg width="40" height="41" viewBox="0 0 40 41" fill="none" xmlns="http://www.w3.org/2000/svg">
<g clip-path="url(#clip0_164_746)">
<path d="M35.3568 9.27532L28.3068 2.22532C28.0032 1.91993 27.642 1.67766 27.2443 1.51247C26.8465 1.34727 26.42 1.26243 25.9893 1.26282H6.94434C6.07863 1.26282 5.24838 1.60672 4.63623 2.21887C4.02408 2.83102 3.68018 3.66127 3.68018 4.52699V37.1662C3.68018 37.5948 3.76461 38.0193 3.92865 38.4153C4.09269 38.8113 4.33312 39.1712 4.63623 39.4743C4.93933 39.7774 5.29917 40.0178 5.6952 40.1819C6.09123 40.3459 6.51569 40.4303 6.94434 40.4303H33.0552C33.4838 40.4303 33.9083 40.3459 34.3043 40.1819C34.7003 40.0178 35.0602 39.7774 35.3633 39.4743C35.6664 39.1712 35.9068 38.8113 36.0709 38.4153C36.2349 38.0193 36.3193 37.5948 36.3193 37.1662V11.5928C36.3197 11.1621 36.2349 10.7356 36.0697 10.3379C35.9045 9.94014 35.6622 9.57901 35.3568 9.27532ZM18.1393 32.2695C17.9078 32.4949 17.5975 32.621 17.2743 32.621C16.9512 32.621 16.6409 32.4949 16.4093 32.2695L10.9427 26.3453C10.7386 26.1226 10.6254 25.8315 10.6254 25.5295C10.6254 25.2274 10.7386 24.9363 10.9427 24.7137L16.3935 18.8712C16.6228 18.7045 16.9028 18.6225 17.1857 18.6392C17.4687 18.656 17.7371 18.7704 17.9451 18.9629C18.1531 19.1555 18.2878 19.4143 18.3263 19.6951C18.3647 19.9759 18.3046 20.2614 18.156 20.5028L13.7827 25.2353C13.7127 25.3108 13.6739 25.4099 13.6739 25.5128C13.6739 25.6157 13.7127 25.7148 13.7827 25.7903L18.1727 30.507C18.2912 30.6221 18.3848 30.7604 18.4477 30.9132C18.5107 31.066 18.5416 31.2301 18.5385 31.3953C18.5355 31.5605 18.4985 31.7233 18.43 31.8737C18.3615 32.0241 18.262 32.1588 18.1393 32.2695ZM29.0568 26.4112L23.606 32.237C23.3785 32.4311 23.0893 32.5378 22.7902 32.5378C22.4911 32.5378 22.2018 32.4311 21.9743 32.237C21.7451 32.0075 21.6164 31.6964 21.6164 31.372C21.6164 31.0476 21.7451 30.7365 21.9743 30.507L26.2177 25.742C26.2876 25.6665 26.3265 25.5674 26.3265 25.4645C26.3265 25.3616 26.2876 25.2625 26.2177 25.187L21.8277 20.5195C21.5985 20.29 21.4697 19.9789 21.4697 19.6545C21.4697 19.3301 21.5985 19.019 21.8277 18.7895C22.0572 18.5603 22.3683 18.4316 22.6927 18.4316C23.017 18.4316 23.3281 18.5603 23.5577 18.7895L28.9918 24.632C29.1092 24.7399 29.204 24.8699 29.2708 25.0146C29.3377 25.1593 29.3752 25.3158 29.3812 25.4751C29.3873 25.6344 29.3617 25.7933 29.306 25.9427C29.2504 26.092 29.1657 26.2289 29.0568 26.3453V26.4112Z" fill="#02C38E"/>
</g>
<defs>
<clipPath id="clip0_164_746">
<rect width="40" height="40" fill="white" transform="translate(0 0.846191)"/>
</clipPath>
</defs>
</svg>
